<svg id="btn_back_bk_80" xmlns="http://www.w3.org/2000/svg" width="60.401" height="60.401" viewBox="0 0 60.401 60.401">
  <g id="guide" fill="#fff" opacity="0">
    <path d="M 59.90136337280273 59.90136337280273 L 0.5000035762786865 59.90136337280273 L 0.5000035762786865 0.5000035762786865 L 59.90136337280273 0.5000035762786865 L 59.90136337280273 59.90136337280273 Z" stroke="none"/>
    <path d="M 1.000003814697266 1.000003814697266 L 1.000003814697266 59.40136337280273 L 59.40136337280273 59.40136337280273 L 59.40136337280273 1.000003814697266 L 1.000003814697266 1.000003814697266 M 3.814697265625e-06 3.814697265625e-06 L 60.40136337280273 3.814697265625e-06 L 60.40136337280273 60.40136337280273 L 3.814697265625e-06 60.40136337280273 L 3.814697265625e-06 3.814697265625e-06 Z" stroke="none" fill="#707070"/>
  </g>
  <path id="패스_7733" data-name="패스 7733" d="M682.485,377.535H661.9l6.784-6.784a.754.754,0,0,0,0-1.068l-.534-.534a.754.754,0,0,0-1.068,0l-8.984,8.984a.755.755,0,0,0,0,1.068l8.984,8.984a.754.754,0,0,0,1.068,0l.534-.534a.754.754,0,0,0,0-1.068L661.9,379.8h20.58a.755.755,0,0,0,.755-.755v-.755A.755.755,0,0,0,682.485,377.535Z" transform="translate(-640.516 -348.543)" fill="#707070"/>
</svg>
