<svg id="그룹_20047" data-name="그룹 20047" xmlns="http://www.w3.org/2000/svg" xmlns:xlink="http://www.w3.org/1999/xlink" width="41.147" height="42.714" viewBox="0 0 41.147 42.714">
  <defs>
    <clipPath id="clip-path">
      <rect id="사각형_24854" data-name="사각형 24854" width="41.147" height="42.714" fill="#4e6aff"/>
    </clipPath>
  </defs>
  <g id="그룹_19893" data-name="그룹 19893" transform="translate(0 0)" clip-path="url(#clip-path)">
    <path id="패스_8181" data-name="패스 8181" d="M1.929,13.519a1.859,1.859,0,0,1-1.366-.562A1.86,1.86,0,0,1,0,11.59V7.732A1.86,1.86,0,0,1,.563,6.366,1.859,1.859,0,0,1,1.929,5.8h37.29a1.921,1.921,0,0,1,1.929,1.928V11.59a1.921,1.921,0,0,1-1.929,1.928Zm36.647,4.5a1.919,1.919,0,0,0-1.928-1.928H4.5a1.921,1.921,0,0,0-1.929,1.928v21.86A1.922,1.922,0,0,0,4.5,41.808H36.648a1.921,1.921,0,0,0,1.928-1.929ZM16.4,23.806a.961.961,0,0,1-.965-.964V22.2a.961.961,0,0,1,.965-.964h8.358a.96.96,0,0,1,.964.964v.643a.96.96,0,0,1-.964.964Z" transform="translate(0 -1.746)" fill="#4e6aff"/>
  </g>
</svg>
